<svg width="89" height="62" viewBox="0 0 89 62" fill="none" xmlns="http://www.w3.org/2000/svg">
<path d="M59.5011 31.0547C50.3133 33.3083 46.9344 38.7122 44.7465 44.1095C49.8102 47.7203 56.5182 50.2281 64.1884 46.8787C71.8587 43.5293 76.0217 37.4454 77.4595 34.4194C74.6391 32.6028 67.2145 29.602 59.5011 31.0547Z" stroke="#629677" stroke-width="3"/>
<path d="M25.2092 46.9952C34.1422 50.1093 39.9192 47.4175 44.6936 44.0826C42.4135 38.2964 38.1535 32.5397 29.8965 31.1713C21.6394 29.8028 14.8345 32.6379 11.9806 34.3925C13.3566 37.4522 17.949 44.0126 25.2092 46.9952Z" stroke="#629677" stroke-width="3"/>
<path d="M67.1574 18.2301C67.7941 17.7001 68.7399 17.7866 69.2699 18.4233C69.7999 19.06 69.7134 20.0058 69.0767 20.5358L67.1574 18.2301ZM20.5791 18.2886C24.6082 22.0657 31.964 25.6616 40.5048 26.4844C48.997 27.3026 58.5774 25.3724 67.1574 18.2301L69.0767 20.5358C59.8001 28.2579 49.3946 30.3548 40.2171 29.4706C31.0881 28.5911 23.0902 24.7548 18.5273 20.4773L20.5791 18.2886Z" fill="#629677"/>
<path d="M49.3936 11.6862C49.3936 14.3213 47.1669 16.4574 44.4202 16.4574C41.6735 16.4574 39.4468 14.3213 39.4468 11.6862C39.4468 9.05107 41.7422 5.69149 44.4202 3C47.3532 5.81383 49.3936 9.05107 49.3936 11.6862Z" stroke="#629677" stroke-width="3"/>
<path d="M2 53.0266H86.8404" stroke="#629677" stroke-width="3" stroke-linecap="round"/>
<line x1="7.5" y1="60.5" x2="80.5638" y2="60.5" stroke="#629677" stroke-width="3" stroke-linecap="round"/>
</svg>
